<mxfile host="app.diagrams.net" modified="2021-12-03T09:46:55.188Z" agent="5.0 (Windows)" etag="p-vR9cVYFrvB9RSd497a" version="15.8.9" type="github">
  <diagram id="eEwwbDFWHGjVddp90yGj" name="Page-1">
    <mxGraphModel dx="1038" dy="523" grid="1" gridSize="10" guides="1" tooltips="1" connect="1" arrows="1" fold="1" page="1" pageScale="1" pageWidth="827" pageHeight="1169" math="0" shadow="0">
      <root>
        <mxCell id="0" />
        <mxCell id="1" parent="0" />
        <mxCell id="Z0DQdyYTtovOAwpP_NLA-1" value="" style="whiteSpace=wrap;html=1;aspect=fixed;strokeColor=#36FFB5;fillColor=#FFE5B8;" vertex="1" parent="1">
          <mxGeometry x="240" y="100" width="210" height="210" as="geometry" />
        </mxCell>
      </root>
    </mxGraphModel>
  </diagram>
</mxfile>
